<?xml version="1.0" standalone="no"?>
<!DOCTYPE svg PUBLIC "-//W3C//DTD SVG 20010904//EN"
 "http://www.w3.org/TR/2001/REC-SVG-20010904/DTD/svg10.dtd">
<svg version="1.0" xmlns="http://www.w3.org/2000/svg"
 width="512.000000pt" height="512.000000pt" viewBox="0 0 512.000000 512.000000"
 preserveAspectRatio="xMidYMid meet">

<g transform="translate(0.000000,512.000000) scale(0.100000,-0.100000)"
fill="#000000" stroke="none">
<path d="M583 4537 c-163 -162 -183 -186 -183 -215 0 -44 38 -82 81 -82 27 0
48 16 135 102 l104 102 0 -1838 0 -1837 25 -24 24 -25 1837 0 1838 0 -102
-104 c-86 -87 -102 -108 -102 -135 0 -43 38 -81 82 -81 29 0 53 20 215 183
166 166 183 186 183 217 0 31 -17 51 -183 217 -162 163 -186 183 -215 183 -44
0 -82 -38 -82 -81 0 -27 16 -48 102 -135 l102 -104 -1782 0 -1782 0 0 1782 0
1782 104 -102 c87 -86 108 -102 135 -102 43 0 81 38 81 82 0 29 -20 53 -183
215 -166 166 -186 183 -217 183 -31 0 -51 -17 -217 -183z"/>
<path d="M2050 3796 c-355 -156 -655 -292 -667 -304 l-23 -21 0 -750 c0 -699
1 -750 18 -769 18 -21 1312 -592 1342 -592 31 0 1324 570 1343 591 16 20 17
71 17 769 0 698 -1 749 -17 769 -21 24 -1315 591 -1347 590 -11 0 -311 -128
-666 -283z m1207 -118 c293 -128 533 -235 533 -238 0 -3 -240 -110 -534 -239
l-535 -233 -535 233 c-295 129 -536 236 -536 239 0 5 1048 467 1065 469 6 1
250 -103 542 -231z m-1147 -618 c261 -114 487 -214 503 -221 l27 -12 0 -632 0
-632 -560 245 -560 245 0 633 0 633 58 -26 c31 -14 271 -119 532 -233z m1806
-1007 c-2 -2 -233 -104 -512 -227 -280 -123 -530 -232 -556 -244 l-48 -21 0
633 0 633 558 244 557 244 3 -629 c1 -346 0 -631 -2 -633z"/>
</g>
</svg>
