<?xml version="1.0" standalone="no"?>
<!DOCTYPE svg PUBLIC "-//W3C//DTD SVG 20010904//EN"
 "http://www.w3.org/TR/2001/REC-SVG-20010904/DTD/svg10.dtd">
<svg version="1.0" xmlns="http://www.w3.org/2000/svg"
 width="512.000000pt" height="512.000000pt" viewBox="0 0 512.000000 512.000000"
 preserveAspectRatio="xMidYMid meet">

<g transform="translate(0.000000,512.000000) scale(0.100000,-0.100000)"
fill="#000000" stroke="none">
<path d="M1161 4473 c-32 -13 -798 -477 -818 -496 -14 -12 -23 -32 -23 -50 0
-42 334 -624 366 -639 19 -9 67 -4 216 21 106 17 199 31 206 31 9 0 12 -192
12 -925 l0 -926 25 -24 24 -25 1071 0 1071 0 24 25 25 24 0 932 0 931 23 -5
c12 -3 104 -20 204 -38 144 -26 188 -30 207 -21 30 13 366 596 366 635 0 13
-8 34 -17 45 -10 11 -200 129 -423 263 l-405 244 -1070 2 c-588 1 -1076 -1
-1084 -4z m599 -221 c0 -227 148 -420 365 -477 162 -42 340 10 458 134 91 95
137 211 137 343 l0 68 240 0 240 0 0 -1360 0 -1360 -960 0 -960 0 0 1360 0
1360 240 0 240 0 0 -68z m798 -14 c-8 -135 -70 -233 -183 -288 -72 -35 -198
-35 -270 0 -113 55 -175 153 -183 288 l-5 82 323 0 323 0 -5 -82z m1411 -344
c3 -3 -235 -422 -248 -437 -4 -4 -87 7 -184 24 l-177 33 0 372 0 373 303 -181
c166 -100 304 -182 306 -184z m-2851 -16 l-3 -372 -169 -29 c-93 -15 -174 -26
-180 -24 -12 5 -261 436 -255 441 17 13 596 356 602 356 4 0 6 -167 5 -372z"/>
<path d="M4438 4393 c-100 -98 -122 -130 -112 -168 13 -51 85 -72 132 -39 l22
15 0 -76 c0 -67 3 -79 25 -100 15 -16 36 -25 55 -25 19 0 40 9 55 25 22 21 25
33 25 100 l0 76 22 -15 c12 -9 37 -16 55 -16 45 0 73 30 73 77 0 33 -9 46 -98
135 -130 130 -132 130 -254 11z"/>
<path d="M4505 3815 c-25 -24 -25 -26 -25 -215 0 -189 0 -191 25 -215 15 -16
36 -25 55 -25 19 0 40 9 55 25 25 24 25 26 25 215 0 189 0 191 -25 215 -15 16
-36 25 -55 25 -19 0 -40 -9 -55 -25z"/>
<path d="M4505 3175 c-25 -24 -25 -26 -25 -215 0 -189 0 -191 25 -215 15 -16
36 -25 55 -25 19 0 40 9 55 25 25 24 25 26 25 215 0 189 0 191 -25 215 -15 16
-36 25 -55 25 -19 0 -40 -9 -55 -25z"/>
<path d="M4505 2535 c-25 -24 -25 -26 -25 -215 0 -189 0 -191 25 -215 15 -16
36 -25 55 -25 19 0 40 9 55 25 25 24 25 26 25 215 0 189 0 191 -25 215 -15 16
-36 25 -55 25 -19 0 -40 -9 -55 -25z"/>
<path d="M4505 1895 c-22 -21 -25 -33 -25 -98 l0 -75 -36 18 c-46 24 -90 11
-109 -33 -20 -47 -4 -75 99 -176 126 -123 127 -123 260 8 89 89 100 103 100
135 0 48 -27 76 -73 76 -20 0 -47 -7 -59 -16 l-22 -15 0 76 c0 67 -3 79 -25
100 -15 16 -36 25 -55 25 -19 0 -40 -9 -55 -25z"/>
<path d="M524 1105 c-16 -7 -68 -53 -116 -102 -120 -123 -119 -124 11 -257 89
-89 103 -100 135 -100 48 0 76 27 76 73 0 20 -7 47 -16 59 l-15 22 76 0 c67 0
79 3 100 25 16 15 25 36 25 55 0 19 -9 40 -25 55 -21 22 -33 25 -100 25 l-76
0 15 22 c18 25 21 70 6 98 -15 28 -61 40 -96 25z"/>
<path d="M3891 1107 c-14 -6 -30 -26 -37 -43 -11 -27 -11 -37 5 -68 l19 -36
-155 0 c-150 0 -155 -1 -178 -25 -34 -33 -33 -78 1 -110 26 -24 31 -25 181
-25 l154 0 -20 -26 c-45 -58 -11 -134 59 -134 30 0 47 13 137 103 135 135 135
136 16 259 -79 81 -127 118 -150 118 -4 0 -19 -6 -32 -13z"/>
<path d="M985 935 c-16 -15 -25 -36 -25 -55 0 -19 9 -40 25 -55 24 -25 26 -25
215 -25 189 0 191 0 215 25 16 15 25 36 25 55 0 19 -9 40 -25 55 -24 25 -26
25 -215 25 -189 0 -191 0 -215 -25z"/>
<path d="M1625 935 c-16 -15 -25 -36 -25 -55 0 -19 9 -40 25 -55 24 -25 26
-25 215 -25 189 0 191 0 215 25 16 15 25 36 25 55 0 19 -9 40 -25 55 -24 25
-26 25 -215 25 -189 0 -191 0 -215 -25z"/>
<path d="M2265 935 c-16 -15 -25 -36 -25 -55 0 -19 9 -40 25 -55 24 -25 26
-25 215 -25 189 0 191 0 215 25 16 15 25 36 25 55 0 19 -9 40 -25 55 -24 25
-26 25 -215 25 -189 0 -191 0 -215 -25z"/>
<path d="M2905 935 c-16 -15 -25 -36 -25 -55 0 -19 9 -40 25 -55 24 -25 26
-25 215 -25 189 0 191 0 215 25 16 15 25 36 25 55 0 19 -9 40 -25 55 -24 25
-26 25 -215 25 -189 0 -191 0 -215 -25z"/>
</g>
</svg>
